<?xml version="1.0" standalone="no"?>
<!DOCTYPE svg PUBLIC "-//W3C//DTD SVG 20010904//EN"
 "http://www.w3.org/TR/2001/REC-SVG-20010904/DTD/svg10.dtd">
<svg version="1.0" xmlns="http://www.w3.org/2000/svg"
 width="174.000000pt" height="174.000000pt" viewBox="0 0 174.000000 174.000000"
 preserveAspectRatio="xMidYMid meet">
<metadata>
Created by potrace 1.11, written by Peter Selinger 2001-2013
</metadata>
<g transform="translate(0.000000,174.000000) scale(0.100000,-0.100000)"
fill="#000000" stroke="none">
<path d="M210 1712 c0 -9 9 -23 20 -30 15 -9 20 -23 20 -55 1 -42 14 -70 38
-74 8 -2 12 9 12 32 0 19 5 35 10 35 6 0 10 -16 10 -35 0 -24 5 -35 15 -35 10
0 15 -11 15 -35 0 -23 5 -35 14 -35 14 0 26 -42 26 -95 0 -21 5 -32 15 -32 11
0 15 12 15 41 0 63 12 146 21 146 4 0 12 -12 17 -27 9 -24 11 -19 11 35 1 68
17 85 24 25 2 -21 4 6 5 60 l2 97 -30 0 c-28 0 -29 -1 -33 -57 l-3 -58 -2 58
-2 57 -110 0 c-98 0 -110 -2 -110 -18z m207 -199 c-2 -21 -4 -6 -4 32 0 39 2
55 4 38 2 -18 2 -50 0 -70z"/>
<path d="M510 1713 c0 -34 25 -56 39 -35 3 5 35 14 71 19 53 9 67 9 76 -3 6
-8 18 -14 26 -14 8 0 26 -9 39 -21 13 -11 25 -16 27 -10 6 18 19 13 25 -9 3
-11 12 -20 20 -20 14 0 47 -80 47 -114 0 -9 5 -16 10 -16 6 0 10 -10 10 -22 0
-19 2 -20 10 -8 7 10 8 4 3 -20 -8 -37 -8 -54 -5 -162 2 -53 5 -66 16 -62 8 3
16 -2 19 -13 3 -10 5 25 6 77 1 52 4 125 8 162 6 65 6 67 19 42 11 -20 14 -73
12 -218 -1 -105 -3 -174 -5 -153 -7 64 -23 41 -24 -35 -1 -40 -5 -86 -9 -103
-7 -28 -8 -27 -9 14 -1 26 -7 48 -16 55 -10 8 -16 41 -21 111 -4 55 -10 105
-14 110 -5 6 -11 53 -15 105 -7 100 -22 161 -35 139 -5 -7 -11 6 -15 30 -6 39
-25 58 -25 25 0 -8 -4 -12 -10 -9 -5 3 -10 16 -10 28 0 18 -2 19 -10 7 -8 -13
-10 -12 -10 3 0 9 -7 17 -15 17 -8 0 -15 5 -15 11 0 5 -5 7 -11 4 -5 -4 -15 6
-21 23 -9 23 -17 29 -45 30 -25 1 -33 -3 -33 -15 0 -13 -3 -14 -12 -5 -16 16
-38 -4 -39 -37 0 -23 -1 -24 -8 -6 -5 11 -8 -97 -8 -240 1 -143 -4 -294 -10
-335 -10 -74 -10 -74 -13 -25 l-3 50 -11 -65 -10 -65 -6 90 c-3 50 -11 99 -17
110 -9 14 -13 16 -13 5 0 -11 -2 -12 -8 -2 -10 15 -42 -171 -43 -254 -1 -33
-3 -50 -5 -39 -20 101 -28 129 -40 153 -13 25 -14 16 -15 -98 -2 -144 -5 -136
-19 45 -20 256 -29 341 -39 368 -6 16 -11 40 -11 53 0 31 -20 22 -21 -9 -3
-55 -28 65 -28 136 -1 99 -37 185 -61 147 -10 -16 -30 -4 -30 17 0 10 -6 14
-20 10 -13 -3 -24 1 -30 14 -16 29 -56 24 -68 -8 l-10 -28 -1 27 c-1 15 -5 30
-11 33 -7 4 -10 -282 -10 -849 l0 -856 652 0 c507 0 649 3 640 12 -8 8 -12 56
-13 147 0 75 -5 159 -10 186 -5 28 -17 123 -26 213 -25 240 -37 208 -44 -114
-4 -148 -7 -288 -8 -311 -1 -31 -5 -41 -15 -37 -9 4 -15 34 -19 105 -5 93 -10
119 -21 108 -3 -2 -8 -65 -12 -140 -6 -122 -8 -135 -25 -135 -18 0 -19 15 -19
349 0 229 -3 346 -10 342 -6 -3 -10 -39 -10 -78 l-1 -72 -16 30 c-12 20 -19
67 -23 145 l-7 115 -3 -85 c-9 -256 -16 -188 -12 110 6 443 15 531 26 243 4
-117 12 -211 16 -208 5 3 11 -5 13 -17 2 -13 5 35 6 106 1 135 7 154 21 64 l9
-53 -2 72 c-1 39 2 75 6 79 4 4 7 23 8 43 0 28 2 32 8 16 7 -18 9 -16 14 10 3
17 5 64 6 105 0 41 5 89 10 105 8 26 10 20 12 -40 5 -140 6 -155 13 -162 4 -4
12 -1 17 7 7 11 8 6 4 -18 -8 -39 3 -112 16 -112 6 0 8 96 7 240 -2 168 1 243
9 251 17 17 25 -33 33 -206 4 -82 8 -139 10 -125 2 24 3 24 10 -5 6 -24 8 -15
10 40 5 106 6 125 14 132 14 14 20 -12 21 -100 1 -50 3 -112 4 -137 l3 -45 9
35 c5 19 7 66 3 104 -4 47 -2 66 5 61 6 -3 11 -40 12 -83 0 -42 7 -93 15 -112
l14 -35 -4 35 c-3 19 1 49 9 65 12 27 14 28 15 8 2 -13 4 -27 5 -33 1 -5 3
-18 4 -27 1 -16 3 -16 11 -3 6 9 10 10 10 3 0 -6 -4 -15 -10 -18 -5 -3 -10
-23 -9 -43 l1 -37 9 34 c15 49 24 29 24 -52 0 -69 10 -195 21 -266 4 -27 8
-31 16 -20 6 10 8 -5 3 -46 -4 -46 -1 -69 11 -93 9 -18 13 -39 10 -47 -3 -8
-2 -15 2 -15 4 0 8 -15 8 -32 2 -58 24 -169 38 -196 l13 -26 8 23 c4 13 5 56
1 95 -3 39 -1 91 3 116 7 34 9 12 10 -95 1 -161 -18 -377 -34 -372 -5 2 -12
12 -14 23 -4 22 -20 44 -31 44 -4 0 -11 -21 -15 -47 -4 -27 -15 -56 -25 -65
-17 -16 -18 -15 -24 23 -6 37 -26 47 -26 13 0 -8 -4 -14 -9 -14 -5 0 -11 -10
-13 -22 -2 -12 -8 -23 -14 -25 -15 -5 -24 75 -24 215 0 61 -4 112 -9 112 -8 0
-21 -141 -21 -242 0 -32 -4 -58 -10 -58 -5 0 -10 -13 -10 -30 l0 -30 216 0
215 0 -3 351 c-3 321 -4 351 -20 360 -10 6 -18 21 -18 33 0 13 -6 38 -14 57
-13 30 -14 31 -21 11 -3 -12 -11 -20 -16 -17 -5 4 -9 -6 -10 -22 l-1 -28 -8
25 -7 25 -12 -28 c-6 -16 -12 -54 -12 -85 -1 -33 -5 -7 -10 61 -5 74 -4 128 2
144 6 16 7 75 3 148 -6 107 1 276 22 525 4 41 7 95 8 118 0 24 2 39 4 33 4
-13 22 -5 22 10 0 5 -220 9 -570 9 -536 0 -570 -1 -570 -17z m387 -140 c-2
-16 -4 -3 -4 27 0 30 2 43 4 28 2 -16 2 -40 0 -55z m240 15 c-3 -7 -5 -2 -5
12 0 14 2 19 5 13 2 -7 2 -19 0 -25z m220 -120 c-2 -24 -4 -7 -4 37 0 44 2 63
4 43 2 -21 2 -57 0 -80z m110 -505 c-3 -10 -5 -2 -5 17 0 19 2 27 5 18 2 -10
2 -26 0 -35z"/>
<path d="M1667 1703 c2 -16 5 -38 5 -51 0 -27 30 -27 33 -1 2 9 6 31 10 48 6
29 5 31 -23 31 -27 0 -30 -3 -25 -27z"/>
<path d="M971 1454 c0 -11 3 -14 6 -6 3 7 2 16 -1 19 -3 4 -6 -2 -5 -13z"/>
<path d="M542 1262 c-1 -24 -5 -41 -9 -39 -5 3 -6 -20 -5 -50 6 -89 23 -46 19
48 -1 46 -4 65 -5 41z"/>
<path d="M513 1155 c0 -27 2 -38 4 -22 2 15 2 37 0 50 -2 12 -4 0 -4 -28z"/>
</g>
</svg>
